<svg xmlns="http://www.w3.org/2000/svg">

  <symbol id="search-icon" viewBox="0 0 20 20">
    <path d="M3.92 8.14c0-2.66 2.16-4.82 4.82-4.82s4.82 2.16 4.82 4.82c0 1.48-.68 2.88-1.86 3.8-.84.66-1.88 1.02-2.96 1.02-2.66 0-4.82-2.16-4.82-4.82zm12.78 8.58l-3.94-4.52a5.702 5.702 0 001.68-4.06c0-3.16-2.56-5.72-5.7-5.72s-5.7 2.56-5.7 5.72c0 3.14 2.56 5.7 5.7 5.7 1.22 0 2.36-.38 3.34-1.08l3.94 4.56.68-.6z"/>
  </symbol>

  <symbol id="db-logo" width="168" height="19" viewBox="0 0 168 19">

    <defs><style>.a{fill:#fff;}</style></defs><path class="a" d="M174.815,43.945a12.093,12.093,0,0,0,1.487-.888,5.277,5.277,0,0,0,1.38-6.4,5.429,5.429,0,0,0-4.974-3.114c-3.18-.087-6.365-.028-9.548-.032a1.83,1.83,0,0,0-.219.026v17.83h2.529V44.462h6.3l4.687,6.9h2.852l-4.892-7.242A4.13,4.13,0,0,0,174.815,43.945Zm-2.685-1.906c-2.13.02-4.258.009-6.387.008-.078,0-.156-.009-.264-.016V36.009a.331.331,0,0,1,.092-.034c2.355.005,4.712-.027,7.066.034a2.979,2.979,0,0,1,2.7,1.633,2.941,2.941,0,0,1-1.871,4.208A5.606,5.606,0,0,1,172.129,42.039Z" transform="translate(-126.158 -32.92)"/><path class="a" d="M207.229,44.049h5.366v3.026a6.5,6.5,0,0,1-2.049,1.41,8.922,8.922,0,0,1-5.872.436,6.1,6.1,0,0,1-4.023-3.053,6.991,6.991,0,0,1-.715-4.7,6.128,6.128,0,0,1,3.108-4.515,7.657,7.657,0,0,1,5.755-.675A5.368,5.368,0,0,1,212.41,38.8c.04.076.091.146.145.236l2.141-1.24c-.045-.093-.073-.155-.1-.214a7.593,7.593,0,0,0-3.654-3.4,10.187,10.187,0,0,0-7.969-.227,8.391,8.391,0,0,0-5.1,5.175,9.653,9.653,0,0,0-.472,4.977,8.589,8.589,0,0,0,2.476,4.9,9.492,9.492,0,0,0,6.06,2.612,11.492,11.492,0,0,0,5.308-.735,10.668,10.668,0,0,0,3.69-2.493V41.724h-7.7Z" transform="translate(-124.349 -32.933)"/><path class="a" d="M193.219,33.534v.372q0,4.98,0,9.963a9.855,9.855,0,0,1-.077,1.355,4.091,4.091,0,0,1-2.681,3.528,7.245,7.245,0,0,1-5.12.011,4,4,0,0,1-2.494-2.516,6.72,6.72,0,0,1-.334-2.3q0-5.026,0-10.052v-.363h-2.548v.295q0,5.115,0,10.229a9.388,9.388,0,0,0,.348,2.687,6.134,6.134,0,0,0,3.379,4.008,9.926,9.926,0,0,0,7.736.269,6.189,6.189,0,0,0,3.108-2.4,7.053,7.053,0,0,0,1.206-3.988c.032-3.636.019-7.272.022-10.909a1.319,1.319,0,0,0-.029-.192Z" transform="translate(-125.261 -32.918)"/><path class="a" d="M230.777,42.7c-.288-.148-.6-.257-.927-.4.1-.068.159-.115.223-.157a3.775,3.775,0,0,0,1.33-1.437,4.792,4.792,0,0,0-4.132-6.994c-3.24-.063-6.484-.022-9.726-.026a1.3,1.3,0,0,0-.151.019v17.8h.3q5.159,0,10.318,0a7.48,7.48,0,0,0,.854-.054,4.656,4.656,0,0,0,4.321-4.65A4.17,4.17,0,0,0,230.777,42.7Zm-10.838-6.552c.1-.006.194-.018.287-.018q3.209,0,6.416,0a2.534,2.534,0,0,1,2.21.972,2.8,2.8,0,0,1,.312,2.756,2.284,2.284,0,0,1-2.048,1.507,3.353,3.353,0,0,1-.353.033q-3.327,0-6.653,0c-.047,0-.095-.009-.172-.018ZM230.564,47.1a2.394,2.394,0,0,1-2.536,1.955c-2.641.026-5.284.008-7.925.007a1.26,1.26,0,0,1-.156-.021V43.772a.592.592,0,0,1,.091-.02c2.711,0,5.421-.026,8.132.012C230.025,43.79,230.93,45.4,230.564,47.1Z" transform="translate(-123.287 -32.911)"/><path class="a" d="M267.441,47.4,256.235,33.7h-2.3V51.489h2.548V37.917l.062-.021,11.139,13.585h2.3V33.709h-2.541Z" transform="translate(-121.361 -32.909)"/><path class="a" d="M280.715,41.169c2.483-2.475,4.954-4.918,7.412-7.374l-.063-.085H284.95l-10.071,10-.074-.046V33.711h-2.514V51.482h2.531v-4.3l4.143-4.268,6.516,8.58h2.845l.066-.076Z" transform="translate(-120.393 -32.909)"/><path class="a" d="M242.009,33.7c-.043.091-.086.178-.127.265l-3.187,6.9q-2.369,5.124-4.735,10.249a2.737,2.737,0,0,0-.111.382h2.676l1.751-3.89h9.812l1.753,3.9h2.741c-2.75-5.974-5.493-11.888-8.22-17.8Zm-2.6,11.424,3.769-8.384c1.278,2.821,2.529,5.587,3.8,8.384Z" transform="translate(-122.42 -32.91)"/><path class="a" d="M151.587,32.949h-6.366a11.023,11.023,0,0,1,1.151,2.536h5.215a6.826,6.826,0,1,1,0,13.652h-5.1a8.111,8.111,0,0,1-1.271,2.536h6.366a9.362,9.362,0,0,0,0-18.724Z" transform="translate(-127.092 -32.949)"/><path class="a" d="M144.73,32.949h-7.368a9.358,9.358,0,0,0-9.2,11.109c.022.117.046.233.074.348.029.132.062.263.1.393a9.473,9.473,0,0,0,.308.927c.086.218.177.433.278.642a9.354,9.354,0,0,0,8.439,5.3h7.368s2.215-2.536,2.215-9.04S144.73,32.949,144.73,32.949ZM131.084,44.186c-.025-.095-.054-.186-.076-.283a6.813,6.813,0,0,1,.728-5.127,6.419,6.419,0,0,1,5.657-3.267S131.841,38.606,131.084,44.186Z" transform="translate(-128 -32.949)"/>
  </symbol>

  <symbol id="loading-icon" viewBox="0 0 96.80000287294388 53.5319966673851">
    <path d="M 70.7 0.379 L 52.499 0.379 C 52.499 0.379 54.165 2.789 55.788 7.629 L 70.7 7.629 C 81.461 7.629 90.216 16.384 90.216 27.145 C 90.216 32.358 88.186 37.259 84.5 40.945 C 80.814 44.631 75.913 46.661 70.7 46.661 L 56.132 46.661 C 54.41 51.716 52.499 53.911 52.499 53.911 L 70.7 53.911 C 85.482 53.911 97.466 41.927 97.466 27.145 C 97.466 12.362 85.482 0.379 70.7 0.379" fill="#FF00B8" transform="matrix(1, 0, 0, 1, 0, 0)"></path>
    <path d="M 48.498 0.38 L 27.432 0.38 C 12.65 0.38 0.666 12.363 0.666 27.146 C 0.666 28.853 0.833 30.521 1.139 32.14 C 1.202 32.475 1.272 32.807 1.348 33.138 C 1.434 33.515 1.528 33.89 1.63 34.262 C 1.879 35.166 2.174 36.05 2.513 36.912 C 2.757 37.535 3.017 38.151 3.306 38.75 C 6.007 44.357 10.606 48.878 16.269 51.48 C 19.667 53.041 23.448 53.911 27.432 53.911 L 48.498 53.911 C 48.498 53.911 54.832 46.661 54.832 28.065 C 54.832 9.469 48.498 0.38 48.498 0.38 M 9.486 32.505 C 9.414 32.235 9.33 31.973 9.268 31.697 C 8.116 26.588 8.646 21.599 11.351 17.037 C 14.971 10.932 20.645 7.825 27.525 7.697 C 27.525 7.697 11.65 16.555 9.486 32.505" fill="#FF00B8" transform="matrix(1, 0, 0, 1, 0, 0)"></path>
  </symbol>

  <symbol id="tooltip-icon" viewBox="0 0 48 48">
    <path d="M0 0h48v48h-48z" fill="none"/><path d="M24 4c-11.05 0-20 8.95-20 20s8.95 20 20 20 20-8.95 20-20-8.95-20-20-20zm2 30h-4v-12h4v12zm0-16h-4v-4h4v4z"/>
  </symbol>

  <symbol id="link-arrow">
    <g id="Group_3060" data-name="Group 3060" transform="translate(1 1.414)">
      <g id="Group_3052" data-name="Group 3052">
        <line id="Line_354" data-name="Line 354" x2="8.653" transform="translate(0 3.524)" fill="none" stroke="#263063" stroke-linecap="round" stroke-linejoin="round" stroke-width="2"/>
        <line id="Line_355" data-name="Line 355" x1="3.524" y1="3.524" transform="translate(5.129)" fill="none" stroke="#263063" stroke-linecap="round" stroke-linejoin="round" stroke-width="2"/>
        <line id="Line_356" data-name="Line 356" x1="3.524" y2="3.524" transform="translate(5.129 3.524)" fill="none" stroke="#263063" stroke-linecap="round" stroke-linejoin="round" stroke-width="2"/>
      </g>
    </g>
  </symbol>


</svg>