<?xml version="1.0" encoding="UTF-8"?>
<!DOCTYPE svg PUBLIC "-//W3C//DTD SVG 1.1//EN" "http://www.w3.org/Graphics/SVG/1.1/DTD/svg11.dtd">
<svg version="1.1" xmlns="http://www.w3.org/2000/svg" xmlns:xlink="http://www.w3.org/1999/xlink" x="0" y="0" width="177.778" height="20" viewBox="0, 0, 177.778, 20">
  <g id="Layer_1">
    <path d="M51.4,11.444 C51.931,11.139 52.5,10.88 52.976,10.504 C54.96,8.934 55.587,5.996 54.438,3.73 C53.348,1.581 51.512,0.498 49.171,0.433 C45.802,0.34 42.43,0.403 39.059,0.4 C38.98,0.4 38.902,0.419 38.827,0.428 L38.827,19.309 L41.505,19.309 L41.505,11.992 L48.174,11.992 C49.836,14.44 51.494,16.881 53.136,19.299 L56.156,19.299 C54.401,16.701 52.695,14.175 50.976,11.63 C51.136,11.561 51.276,11.516 51.4,11.444 M48.557,9.426 C46.302,9.447 44.048,9.436 41.793,9.435 C41.711,9.435 41.629,9.425 41.514,9.418 L41.514,3.04 C41.555,3.025 41.583,3.005 41.611,3.005 C44.105,3.01 46.601,2.976 49.093,3.041 C50.323,3.073 51.358,3.624 51.955,4.769 C52.882,6.546 51.913,8.725 49.974,9.226 C49.514,9.344 49.03,9.422 48.557,9.426" fill="#FFFFFF"/>
    <path d="M87.641,11.54 L93.324,11.54 L93.324,14.744 C92.683,15.388 91.968,15.886 91.154,16.237 C89.136,17.107 87.051,17.235 84.937,16.699 C83.074,16.226 81.611,15.176 80.675,13.466 C79.82,11.902 79.611,10.225 79.918,8.49 C80.287,6.407 81.337,4.753 83.21,3.709 C85.132,2.636 87.191,2.47 89.303,2.995 C91.01,3.419 92.304,4.407 93.128,5.98 C93.17,6.06 93.223,6.135 93.281,6.229 C94.046,5.787 94.791,5.355 95.549,4.916 C95.501,4.818 95.472,4.753 95.438,4.69 C94.555,3.053 93.257,1.843 91.569,1.086 C88.798,-0.159 85.959,-0.203 83.13,0.846 C80.496,1.822 78.705,3.699 77.727,6.326 C77.092,8.031 76.938,9.798 77.227,11.596 C77.55,13.601 78.393,15.357 79.85,16.784 C81.628,18.526 83.826,19.343 86.267,19.55 C88.194,19.714 90.079,19.494 91.888,18.772 C93.392,18.171 94.689,17.264 95.794,16.132 L95.794,9.079 L87.641,9.079 L87.641,11.54 z" fill="#FFFFFF"/>
    <path d="M71.84,0.422 L71.84,0.815 C71.84,4.331 71.843,7.849 71.836,11.366 C71.836,11.844 71.823,12.328 71.755,12.8 C71.502,14.566 70.624,15.897 68.916,16.536 C67.124,17.206 65.294,17.196 63.493,16.547 C62.206,16.082 61.321,15.181 60.853,13.882 C60.568,13.094 60.501,12.275 60.5,11.448 C60.496,7.9 60.498,4.351 60.498,0.803 L60.498,0.418 L57.801,0.418 L57.801,0.73 C57.801,4.341 57.797,7.952 57.804,11.563 C57.805,12.525 57.896,13.479 58.173,14.407 C58.751,16.341 59.919,17.806 61.751,18.651 C64.428,19.887 67.183,19.918 69.943,18.936 C71.304,18.453 72.414,17.606 73.235,16.4 C74.103,15.124 74.498,13.694 74.511,12.177 C74.546,8.327 74.532,4.476 74.535,0.625 C74.536,0.557 74.514,0.488 74.504,0.422 L71.84,0.422 z" fill="#FFFFFF"/>
    <path d="M113.702,10.135 C113.396,9.978 113.068,9.863 112.719,9.715 C112.822,9.643 112.887,9.594 112.956,9.55 C113.553,9.16 114.037,8.662 114.364,8.027 C116.076,4.707 113.735,0.695 109.989,0.622 C106.556,0.555 103.122,0.598 99.689,0.593 C99.64,0.593 99.591,0.606 99.53,0.614 L99.53,19.464 L99.849,19.464 C103.491,19.464 107.133,19.466 110.775,19.462 C111.076,19.461 111.38,19.44 111.679,19.405 C114.369,19.091 116.181,17.163 116.255,14.481 C116.309,12.519 115.471,11.041 113.702,10.135 M102.225,3.197 C102.331,3.19 102.43,3.178 102.53,3.178 C104.794,3.177 107.059,3.176 109.324,3.177 C110.253,3.178 111.093,3.42 111.663,4.206 C112.316,5.106 112.374,6.113 111.993,7.124 C111.624,8.103 110.858,8.61 109.825,8.721 C109.701,8.735 109.576,8.756 109.451,8.756 C107.103,8.759 104.755,8.759 102.406,8.758 C102.356,8.758 102.306,8.748 102.225,8.739 L102.225,3.197 z M113.475,14.801 C113.197,16.101 112.238,16.856 110.79,16.87 C107.993,16.899 105.195,16.879 102.397,16.879 C102.347,16.879 102.298,16.865 102.232,16.856 L102.232,11.272 C102.287,11.259 102.308,11.25 102.328,11.25 C105.199,11.251 108.07,11.223 110.94,11.263 C112.904,11.291 113.863,12.991 113.475,14.801" fill="#FFFFFF"/>
    <path d="M154.566,15.112 C150.567,10.225 146.631,5.415 142.7,0.611 L140.266,0.611 L140.266,19.444 L142.964,19.444 L142.964,5.072 C142.986,5.065 143.007,5.058 143.029,5.05 C146.97,9.857 150.911,14.663 154.824,19.437 L157.257,19.437 L157.257,0.617 L154.566,0.617 L154.566,15.112 z" fill="#FFFFFF"/>
    <path d="M169.647,8.516 C172.277,5.896 174.893,3.308 177.496,0.708 C177.474,0.677 177.451,0.647 177.43,0.617 L174.132,0.617 C170.588,4.134 167.027,7.668 163.466,11.203 L163.388,11.154 L163.388,0.62 L160.726,0.62 L160.726,19.437 L163.406,19.437 L163.406,14.887 C164.934,13.313 166.356,11.85 167.794,10.368 C170.104,13.409 172.4,16.433 174.694,19.454 L177.707,19.454 C177.731,19.427 177.754,19.4 177.778,19.373 C175.07,15.757 172.362,12.142 169.647,8.516" fill="#FFFFFF"/>
    <path d="M126.514,0.603 C126.468,0.699 126.421,0.791 126.378,0.885 C125.253,3.319 124.128,5.752 123.004,8.186 C121.331,11.804 119.659,15.421 117.99,19.04 C117.934,19.161 117.914,19.3 117.873,19.444 L120.706,19.444 C121.33,18.058 121.946,16.69 122.561,15.325 L132.951,15.325 C133.575,16.711 134.194,18.088 134.807,19.451 L137.71,19.451 C134.798,13.124 131.893,6.862 129.006,0.603 L126.514,0.603 z M123.764,12.7 C125.093,9.744 126.408,6.819 127.755,3.823 C129.108,6.811 130.433,9.739 131.773,12.7 L123.764,12.7 z" fill="#FFFFFF"/>
    <path d="M25.815,-0.23 L19.074,-0.23 C19.074,-0.23 19.691,0.663 20.292,2.455 L25.815,2.455 C29.8,2.455 33.043,5.698 33.043,9.683 C33.043,11.614 32.291,13.429 30.926,14.794 C29.561,16.16 27.746,16.911 25.815,16.911 L20.419,16.911 C19.781,18.784 19.074,19.597 19.074,19.597 L25.815,19.597 C31.29,19.597 35.728,15.158 35.728,9.683 C35.728,4.208 31.29,-0.23 25.815,-0.23" fill="#FFFFFF"/>
    <path d="M17.716,-0.23 L9.913,-0.23 C4.439,-0.23 0,4.208 0,9.684 C0,10.316 0.062,10.934 0.175,11.533 C0.199,11.657 0.224,11.78 0.253,11.903 C0.284,12.042 0.319,12.181 0.357,12.319 C0.449,12.654 0.559,12.981 0.684,13.301 C0.774,13.531 0.871,13.759 0.978,13.981 C1.978,16.058 3.681,17.732 5.779,18.696 C7.037,19.274 8.438,19.596 9.913,19.596 L17.716,19.596 C17.716,19.596 20.061,16.911 20.061,10.024 C20.061,3.136 17.716,-0.23 17.716,-0.23 M3.267,11.668 C3.24,11.568 3.209,11.471 3.186,11.369 C2.759,9.477 2.956,7.629 3.957,5.939 C5.298,3.678 7.4,2.528 9.948,2.48 C9.948,2.48 4.068,5.761 3.267,11.668" fill="#FFFFFF"/>
  </g>
</svg>
